<?xml version="1.0" encoding="UTF-8"?><svg id="a" xmlns="http://www.w3.org/2000/svg" viewBox="0 0 670 506"><defs><style>.b{fill:none;stroke:#000;stroke-miterlimit:10;stroke-width:56px;}</style></defs><line class="b" x1="207.5" y1="298" x2="507.5" y2="298"/><line class="b" x1="237.5" y1="208" x2="507.5" y2="208"/><line class="b" x1="207.5" y1="118" x2="642" y2="118"/><line class="b" x1="207.5" y1="28" x2="642" y2="28"/><line class="b" x1="28" y1="478" x2="507.5" y2="478"/><line class="b" x1="207.5" y1="388" x2="507.5" y2="388"/><path class="b" d="M507,208c74.56,0,135,60.44,135,135s-60.44,135-135,135"/><path class="b" d="M208,118c-49.71,0-90,40.29-90,90s40.29,90,90,90"/><path class="b" d="M208,28C108.59,28,28,108.59,28,208s80.59,180,180,180"/></svg>